<svg width="331" height="342" viewBox="0 0 331 342" fill="none" xmlns="http://www.w3.org/2000/svg">
<path d="M239.362 83.7891C242.049 85.5384 244.179 88.0659 245.486 91.0566C247.239 95.2991 248.473 99.751 249.16 104.309C248.146 104.337 247.137 104.469 246.148 104.702C246.032 104.702 245.37 105.062 245.254 105.438C244.724 107.334 244.32 109.265 244.046 111.218L210.946 111.423C210.565 111.423 210.615 111.884 210.946 111.902C210.946 111.902 241.166 112.38 244.046 112.397C243.318 118.622 243.93 125.462 248.2 129.874C252.222 133.978 265.892 134.559 270.973 130.643C275.193 127.377 276.236 117.938 275.938 112.397C276.931 112.397 299.306 111.987 301.524 111.902C301.586 111.902 301.644 111.876 301.688 111.831C301.731 111.786 301.756 111.726 301.756 111.662C301.756 111.599 301.731 111.538 301.688 111.493C301.644 111.448 301.586 111.423 301.524 111.423C297.751 111.423 275.888 111.252 275.888 111.252C275.441 106.122 274.233 105.609 274.233 105.369C274.22 105.211 274.158 105.061 274.057 104.941C273.956 104.822 273.82 104.738 273.67 104.702C272.231 104.412 270.768 104.257 269.301 104.241C271.618 100.393 273.604 89.928 277.245 82.917C282.641 72.4689 302.947 82.4211 302.616 73.1871C302.219 62.9271 291.197 57.1644 279.364 62.6022C268.126 67.7322 265.197 91.6722 264.998 104.172C261.605 104.172 263.244 104.275 258.378 104.172C262.632 98.3241 268.043 78.8301 267.1 65.2014C266.019 56.1568 262.335 47.6559 256.525 40.7997C251.427 34.9002 245.453 32.4036 240.951 37.1403C234.331 43.9803 240.421 51.624 246.082 59.3703C252.304 67.9203 254.638 72.1782 255.482 84.3534C255.877 90.9591 255.756 97.5869 255.118 104.172H253.281C254.704 99.3672 252.867 88.7823 251.527 83.8062C249.607 76.7781 246.33 69.6987 241.133 64.8252C234.994 59.3482 227.528 55.701 219.535 54.2745C214.653 53.4195 210.483 53.7444 208.215 55.1466C207.381 55.5947 206.738 56.3457 206.408 57.2549C206.078 58.1641 206.085 59.1674 206.428 60.0714C209.175 69.3567 228.605 76.9491 239.362 83.7891ZM279.695 63.6966C290.767 58.5666 300.961 63.9531 301.309 73.2555C301.574 80.3862 281.664 71.5455 276.236 82.4724C272.462 90.0306 270.791 100.598 268.507 104.258H267.332C268.987 96.7167 273.042 79.9416 277.808 74.0079C283.898 66.33 294.507 70.8102 294.97 70.6905C295.152 70.6905 295.334 70.3827 294.788 70.1775C288.168 67.698 281.432 67.7493 276.931 73.2555C271.519 79.8561 268.11 95.7591 266.686 104.309H265.263C265.71 92.3391 268.954 68.5701 279.695 63.6966ZM256.326 84.3363C255.664 72.2637 253.513 67.8348 246.975 58.6863C241.613 51.2478 235.87 44.1513 241.795 37.944C245.833 33.7032 251.096 36.234 255.664 41.5692C261.257 48.2591 264.785 56.5253 265.793 65.304C266.868 79.155 261.407 99.0423 257.518 104.189H256.64C258.411 96.3594 259.557 88.3926 260.066 80.3691C260.447 73.5291 260.331 68.7753 258.411 62.8245C256.834 58.2937 254.644 54.0162 251.907 50.1192C250.601 48.1971 249.163 46.3741 247.604 44.6643C247.565 44.6144 247.508 44.5828 247.446 44.5764C247.383 44.57 247.321 44.5893 247.273 44.6301C247.225 44.6709 247.194 44.7299 247.188 44.794C247.182 44.8582 247.201 44.9222 247.24 44.9721C247.655 45.4197 248.042 45.8937 248.399 46.3914C253.562 53.2314 258.66 63.2178 259.057 72.0414C259.454 80.865 257.749 95.5881 256.177 104.309H255.714C256.445 97.6799 256.649 91 256.326 84.3363ZM273.19 106.156C275.921 108.738 275.061 125.889 270.112 129.72C265.164 133.55 252.271 132.644 248.763 129.138C243.235 123.649 243.798 113.372 245.684 105.746C245.802 105.905 245.963 106.025 246.148 106.088C247.42 106.391 248.716 106.574 250.02 106.635C248.4 112.84 248.684 119.413 250.831 125.445C250.91 125.617 251.052 125.75 251.226 125.814C251.4 125.878 251.591 125.868 251.758 125.787C251.925 125.705 252.054 125.558 252.116 125.379C252.178 125.199 252.168 125.001 252.089 124.829C250.004 120.52 249.441 110.944 250.649 106.754C255.813 106.994 269.632 107.096 273.19 106.156ZM240.421 65.6973C251.642 75.9573 254.522 98.6832 252.784 104.224H251.758C251.523 99.4719 250.723 94.7682 249.375 90.2187C245.8 78.2487 239.809 70.8957 230.624 65.3553C225.826 62.5195 220.691 60.3409 215.348 58.8744C215.287 58.8585 215.222 58.8685 215.167 58.9022C215.113 58.9359 215.074 58.9905 215.059 59.054C215.043 59.1175 215.053 59.1847 215.086 59.2408C215.118 59.2969 215.171 59.3373 215.232 59.3532C221.469 61.3964 227.388 64.3565 232.808 68.1426C238.819 72.2767 243.512 78.1547 246.297 85.0374C248.94 91.1213 250.616 97.6056 251.262 104.241H249.706C249.094 99.5473 247.915 94.9515 246.197 90.5607C244.855 87.4033 242.653 84.7177 239.859 82.8315C228.919 75.8718 210.069 68.2452 207.553 59.6952C205.22 51.8463 227.711 53.9325 240.421 65.6973ZM97.3136 153.745C75.269 145.828 55.5083 142.288 43.2117 139.091C43.0594 139.046 42.9 139.034 42.7431 139.055C42.5863 139.076 42.4351 139.13 42.2987 139.212C42.1623 139.295 42.0435 139.406 41.9494 139.537C41.8552 139.668 41.7878 139.818 41.751 139.977C41.7142 140.136 41.7088 140.301 41.7353 140.462C41.7617 140.623 41.8193 140.777 41.9047 140.915C41.9901 141.052 42.1015 141.171 42.2323 141.263C42.363 141.355 42.5104 141.419 42.6655 141.45C50.5764 143.417 62.5255 145.674 75.4511 148.769C96.8006 153.899 97.264 155.421 97.6115 154.361C97.6486 154.238 97.6383 154.106 97.5828 153.991C97.5272 153.876 97.4307 153.788 97.3136 153.745ZM271.999 167.579C271.999 167.539 271.991 167.499 271.976 167.461C271.961 167.424 271.939 167.39 271.912 167.361C271.884 167.333 271.851 167.31 271.815 167.295C271.779 167.279 271.74 167.271 271.701 167.271C257.187 167.271 243.069 170.691 235.076 171.461C234.979 171.469 234.884 171.498 234.797 171.545C234.711 171.592 234.635 171.657 234.573 171.735C234.511 171.813 234.465 171.903 234.438 172C234.411 172.097 234.402 172.199 234.414 172.299C234.422 172.4 234.45 172.498 234.495 172.589C234.54 172.679 234.603 172.759 234.678 172.824C234.753 172.889 234.84 172.938 234.934 172.968C235.028 172.998 235.127 173.009 235.225 173C241.083 172.401 251.229 170.11 260.728 168.845C271.271 167.579 272.015 168.349 271.999 167.579ZM222.001 203.164C222.016 203.136 222.024 203.105 222.027 203.074C222.03 203.042 222.027 203.011 222.017 202.98C222.008 202.95 221.993 202.922 221.973 202.898C221.954 202.874 221.929 202.854 221.902 202.839L221.488 202.617L221.389 203.13C221.67 203.267 221.885 203.489 222.001 203.164Z" fill="#0560FC"/>
<path d="M322.526 207.44C318.273 206.534 307.764 206.893 303.428 207.286C307.003 194.666 310.693 178.216 312.183 169.153C312.722 166.645 312.956 164.077 312.878 161.51C312.824 161.279 312.723 161.063 312.584 160.874C312.444 160.686 312.268 160.529 312.067 160.415C305.447 156.123 236.086 165.545 231.253 168.025C229.813 168.76 228.522 172.471 227.943 174.146C223.657 166.862 224.104 165.135 219.321 153.626C216.34 146.131 212.56 139.001 208.05 132.371C208.166 131.465 212.75 96.085 207.835 86.6287C204.525 80.3017 186.601 78.0787 179.7 77.4802C179.7 77.104 178.839 70.6402 178.475 67.7161C184.301 62.6887 186.75 53.4376 180.428 51.8815C175.943 50.7871 158.235 47.2987 145.044 50.8213C136.769 53.0443 130.149 58.0375 129.587 67.9213C129.364 71.6744 129.587 75.4415 130.249 79.1389C121.692 80.1136 106.963 81.5671 99.4491 84.4912C89.7839 88.2532 93.8552 131.944 94.8813 135.483C94.3186 136.92 93.789 138.373 93.309 139.724C69.2288 133.38 15.3254 121.547 12.9257 121.769C12.3006 121.761 11.6834 121.913 11.129 122.212C10.5745 122.51 10.1002 122.945 9.74806 123.479C9.10261 123.633 8.87091 124.574 8.75506 125.189C7.10006 134.286 10.0956 188.613 10.6252 197.83C11.5024 201.147 37.0059 208.346 40.3159 209.287C40.4814 213.784 41.3586 236.117 41.5406 240.7C40.1008 240.429 38.6755 240.081 37.2707 239.657C34.3248 238.408 23.0377 249.763 24.0307 248.822C19.7112 252.789 66.7132 265.837 70.47 264.742C74.2269 263.648 81.6578 256.312 80.4 252.225C80.0522 251.498 79.4657 250.922 78.745 250.601C75.1868 248.668 65.7698 246.291 61.8475 245.317C62.2281 237.04 62.2281 223.463 62.2116 215.221C66.8621 216.418 93.2594 223.018 98.0258 222.933C98.3674 222.938 98.7043 222.849 99.0022 222.676C100.525 222.454 102.312 222.061 102.461 220.453C102.461 219.974 102.842 215.802 103.322 209.612C114.99 214.212 129.14 213.87 131.655 212.81C132.334 212.472 132.907 211.944 133.31 211.288C133.426 211.442 133.476 211.407 134.353 211.544C137.663 212.091 142.959 212.604 145.938 210.997C150.158 211.698 162.389 212.707 163.299 208.483C163.415 207.919 163.58 206.773 163.746 205.388C175.993 206.072 219.486 205.764 219.652 205.764L218.642 210.467C218.617 210.428 218.582 210.397 218.541 210.376C218.501 210.355 218.456 210.345 218.41 210.347C218.41 210.21 218.41 210.245 218.41 210.347C211.633 209.795 204.833 209.613 198.037 209.8C195.621 209.92 189.249 210.227 189.133 212.656C188.287 214.719 188.164 217.023 188.786 219.171C189.15 220.522 192.228 222.71 193.37 223.514C186.899 222.847 183.126 223.104 181.173 223.822C180.708 223.906 180.276 224.121 179.922 224.443C179.569 224.766 179.309 225.184 179.172 225.65C179.035 226.116 179.026 226.612 179.145 227.083C179.265 227.555 179.508 227.983 179.849 228.319C182.067 231.466 186.684 232.526 187.181 236.647C188.124 244.462 168.893 253.302 161.876 256.397C165.401 251.609 174.851 236.544 170.266 232.902C165.169 228.849 121.461 227.071 117.439 228.131C114.609 228.884 93.8055 244.769 94.1862 250.361C94.451 254.003 114.923 257.577 118.73 258.261C123.016 259.014 153.601 263.939 157.258 261.527C158.034 261.204 158.739 260.722 159.33 260.111C159.921 259.5 160.388 258.772 160.701 257.971C167.038 255.72 173.138 252.809 178.906 249.284C188.008 243.453 193.105 236.237 184.102 230.166C183.027 229.448 180.081 227.259 180.511 226.028C181.438 223.309 194.231 224.318 194.413 224.318C200.354 228.319 211.724 234.492 218.427 236.288C225.51 238.22 258.61 234.475 266.604 233.432C267.514 236.852 268.391 240.033 268.971 241.982C267.729 242.085 264.188 242.41 263.195 243.213C262.649 243.658 262.665 244.41 263.542 244.923C263.542 250.652 262.864 267.786 264.519 275.515C265.148 278.405 265.876 279.602 268.772 280.645C274.25 282.475 284.776 281.825 290.287 280.303C293.713 279.346 294.16 278.593 294.706 276.712C296.593 270.317 296.493 251.438 296.361 244.735C296.467 244.656 296.553 244.552 296.613 244.432C296.672 244.311 296.703 244.178 296.703 244.043C296.703 243.908 296.672 243.774 296.613 243.654C296.553 243.534 296.467 243.429 296.361 243.35C295.137 242.764 293.818 242.416 292.472 242.324C292.703 240.409 293.945 229.704 294.127 227.823C294.992 227.287 295.764 226.605 296.411 225.806C297.422 224.535 298.08 223.004 298.314 221.377C299.969 219.137 302.352 210.775 303.13 208.039C310.511 208.364 321.335 207.919 322.344 208.039C322.421 208.064 322.504 208.056 322.576 208.018C322.647 207.979 322.701 207.913 322.725 207.833C322.749 207.754 322.742 207.668 322.705 207.594C322.667 207.521 322.603 207.465 322.526 207.44ZM98.8202 244.342C99.929 243.077 101.236 241.76 102.627 240.426C108.535 234.783 116.049 229.106 117.687 228.678C121.659 227.618 165.285 230.388 169.72 233.808C170.465 234.39 170.614 235.518 170.465 236.869C169.869 242.239 164.441 251.096 161.28 255.423C157.705 252.242 103.553 245.009 98.8202 244.342ZM179.915 78.7114C186.237 79.327 203.962 81.4303 207.008 87.1417C211.311 95.1787 208.663 122.59 207.603 131.602C206.676 130.319 205.717 129.105 204.74 127.994C199.13 121.632 189.498 118.435 181.338 116.81C176.097 115.867 170.81 115.222 165.5 114.878C165.335 114.878 165.599 115.134 164.292 112.364C162.339 108.209 162.223 108.277 162.422 108.158C164.592 108.038 166.741 107.659 168.827 107.029C174.421 105.319 177.747 101.899 179.319 93.5884C180.173 88.6626 180.351 83.6372 179.849 78.6601L179.915 78.7114ZM165.666 115.408C166.708 115.562 166.99 115.545 167.072 115.596C167.072 116.024 170.697 136.116 158.284 137.039C148.023 137.912 141.271 123.035 137.63 113.099C138.954 112.877 140.013 112.723 140.725 112.621C141.072 120.418 151.929 134.56 157.953 133.568C164.722 132.422 168.049 121.786 165.666 115.408ZM140.956 83.944C141.105 83.1811 141.435 82.4686 141.918 81.8713C142.401 81.274 143.02 80.8109 143.72 80.524C147.03 79.6861 147.03 83.944 149.662 83.7046C152.972 83.4823 149.281 75.5479 152.128 70.7086C155.223 65.3734 167.767 76.1635 177.913 68.1607C179.137 77.1724 180.478 84.1834 178.608 93.3832C176.953 101.454 173.874 104.43 168.562 106.037C166.379 106.556 164.168 106.945 161.942 107.2C161.764 107.304 161.615 107.452 161.508 107.632C161.401 107.811 161.339 108.015 161.33 108.226C161.33 108.824 162.985 111.885 164.524 115.459C166.824 121.068 163.829 131.26 157.771 132.234C153.468 132.935 145.044 122.966 142.645 115.921C141.585 112.809 141.9 112.689 143.77 100.531C146.401 100.719 146.948 95.401 147.08 92.6479C147.107 92.0642 146.911 91.4929 146.534 91.0576C145.342 89.7067 144.366 91.2799 142.049 88.2874C141.543 87.7068 141.18 87.0092 140.99 86.2533C140.8 85.4974 140.788 84.7054 140.956 83.944ZM130.48 80.3701C132.698 90.8353 138.524 98.1028 142.529 100.121C141.801 104.926 140.973 110.278 140.758 111.902C131.208 112.397 121.79 114.416 112.838 117.887C108.863 119.46 105.158 121.683 101.865 124.471C100.045 114.724 104.729 95.6746 104.149 90.271C103.884 87.9796 103.256 85.5514 101.088 85.0555C108.502 82.6444 122.238 81.2764 130.48 80.3701ZM100.095 85.5001C100.49 85.514 100.879 85.6105 101.237 85.7839C101.596 85.9573 101.916 86.204 102.18 86.509C102.926 87.6723 103.302 89.0472 103.256 90.442C103.62 95.572 98.4726 114.485 101.369 124.967C98.5791 127.67 96.4664 131.032 95.2123 134.765C93.8883 126.437 91.6871 88.5268 100.095 85.5001ZM40.6304 163.408C40.7628 162.604 42.1861 162.245 42.9639 162.108C48.7068 161.133 60.6393 164.519 60.3745 168.64C59.9773 174.745 61.7978 248.72 60.2421 251.438C58.3885 254.705 48.2599 252.892 44.2217 249.985C42.3847 248.668 42.4178 247.54 42.4674 247.762C41.0607 189.536 40.3987 164.741 40.6304 163.408ZM78.9933 252.789C79.8373 255.696 73.2008 262.382 70.1225 263.272C67.0442 264.161 21.6641 252.02 24.6265 249.25C23.2529 250.532 32.0078 242.204 35.864 240.871C36.1713 240.712 36.5226 240.67 36.857 240.751C37.3038 240.956 39.0581 241.418 41.5903 242.033C41.7392 245.642 41.8385 247.779 41.8385 247.779C42.815 252.806 58.3885 256.603 61.1027 251.969C61.5183 250.326 61.7405 248.638 61.7647 246.941C64.2969 247.591 77.2886 250.857 78.9933 252.789ZM98.0258 221.479C93.6731 221.65 66.5808 215.084 62.2116 214.024C62.1288 193.982 61.7316 171.513 61.9302 168.743C62.3274 162.45 46.8366 159.03 41.3751 160.877C40.8339 161 40.3365 161.276 39.9389 161.675C39.5413 162.073 39.2592 162.579 39.1243 163.134C38.7602 165.408 40.1835 205.884 40.2663 208.312C37.5686 207.56 12.2968 200.6 11.2541 197.813C10.9728 191.52 8.27511 130.678 10.1949 124.916C19.1981 127.241 96.0894 143.264 101.501 147.146C102.858 150.993 99.7635 216.041 98.0258 221.479ZM101.915 220.47C101.915 221.616 100.442 222.009 99.3498 222.18C101.137 217.751 104.695 150.36 102.875 146.393C101.054 142.426 18.0231 125.753 10.2611 123.513C10.6063 123.127 11.0266 122.821 11.4943 122.615C11.9621 122.409 12.4668 122.307 12.9753 122.316C15.2758 122.145 100.177 141.742 105.109 144.546C105.937 147.009 105.109 164.16 104.993 166.982C104.695 173.787 101.981 219.547 101.915 220.47ZM146.6 208.894C144.664 211.561 137.795 211.236 134.568 210.929H133.774C135.246 207.87 136.081 204.526 136.223 201.113C137.878 200.634 143.935 199.181 144.862 200.72C145.144 201.164 144.25 201.695 143.786 201.951C142.563 202.538 141.281 202.985 139.963 203.285C139.768 203.323 139.596 203.441 139.484 203.611C139.372 203.78 139.33 203.989 139.368 204.191C139.405 204.393 139.518 204.571 139.683 204.687C139.847 204.802 140.049 204.845 140.245 204.807C141.9 204.567 146.418 203.918 148.023 204.482C147.362 205.43 146.412 206.123 145.326 206.448C143.778 206.438 142.233 206.569 140.708 206.842C140.489 206.885 140.292 207.009 140.156 207.193C140.019 207.376 139.953 207.604 139.969 207.835C139.986 208.065 140.084 208.281 140.244 208.442C140.405 208.602 140.617 208.696 140.841 208.706C142.522 208.756 144.199 208.519 145.806 208.004C146.224 208.022 146.635 208.127 147.014 208.312C146.908 208.542 146.749 208.742 146.55 208.894H146.6ZM162.256 208.295C162.186 208.562 162.055 208.806 161.873 209.009C161.692 209.211 161.465 209.365 161.214 209.458C158.152 211.168 150.423 210.86 146.981 210.501C148.255 209.492 149 207.851 147.709 206.944C150.258 205.234 149.993 203.405 148.321 202.874C147.239 202.603 146.12 202.522 145.011 202.635C146.054 201.831 146.434 200.925 145.806 199.95C144.895 198.617 142.496 198.788 141.006 199.044C140.297 192.274 139.933 185.47 139.914 178.661C144.333 181.978 158.979 182.081 164.093 178.934C164.342 184.68 162.67 205.799 162.19 208.295H162.256ZM148.056 204.413C148.056 204.413 148.007 204.448 148.007 204.413H148.056ZM183.573 204.79C186.634 195.539 187.065 175.942 186.883 166.144C189.448 170.402 203.433 190.819 203.532 190.99C203.872 191.527 204.272 192.021 204.724 192.461C208.058 195.609 211.802 198.263 215.845 200.344C220.165 202.703 220.512 202.584 220.479 202.772L219.9 205.337C219.619 205.32 186.105 204.79 183.523 204.79H183.573ZM190.706 212.468C194.264 209.903 218.46 211.065 218.725 210.894V211.082C216.408 222.539 215.514 226.678 215.233 228.182C215.382 227.516 216.292 223.052 217.335 218.111C218.063 214.485 218.99 210.176 219.933 205.61C220.363 203.524 220.645 202.19 220.661 202.088C216.127 199.608 209.209 195.333 205.584 191.554C204.674 190.597 187.081 165.408 186.916 165.118C186.75 164.827 186.75 157.32 186.568 156.978C186.534 156.939 186.488 156.912 186.438 156.901C186.388 156.89 186.336 156.895 186.289 156.916C186.242 156.936 186.202 156.971 186.175 157.016C186.148 157.061 186.135 157.113 186.138 157.166C185.972 157.166 186.138 193.726 183.076 204.738L164.011 204.926C164.126 203.969 164.242 202.857 164.375 201.66C172.054 202.669 175.546 193.965 173.51 186.869C172.302 182.97 169.191 182.372 165.633 184.253C165.798 181.976 165.798 179.689 165.633 177.413C165.786 177.02 165.813 176.586 165.708 176.176C165.604 175.766 165.374 175.402 165.053 175.138C162.587 172.744 155.686 172.488 152.326 172.488C148.967 172.488 142.049 172.761 139.599 175.138C139.385 175.31 139.214 175.533 139.103 175.788C137.845 178.131 140.261 198.668 140.559 199.112C139.118 199.409 137.697 199.803 136.306 200.292V197.556C136.207 191.588 117.737 188.271 117.108 184.868C116.893 183.705 116.545 181.106 116.148 178.028C113.914 161.133 114.245 161.783 113.881 161.783C113.819 161.783 113.76 161.808 113.717 161.853C113.673 161.898 113.649 161.959 113.649 162.023C113.649 162.484 115.436 181.089 116.082 185.039C116.727 188.989 135.065 192.82 135.147 197.556C135.147 201.25 134.353 210.416 131.258 211.732C129.388 212.553 114.923 213.305 103.388 209.116C103.636 205.799 108.237 146.41 106.019 143.777C105.175 142.768 95.2619 140.203 94.0041 139.878C98.9691 128.25 102.643 118.674 137.167 113.082C138.125 116.403 139.298 119.653 140.675 122.812C144.184 130.559 150.125 138.92 158.351 138.202C167.801 137.364 169.323 126.779 167.817 117.118C167.718 116.434 167.618 115.989 167.536 115.596C172.077 116.066 176.59 116.785 181.057 117.751C188.852 119.461 198.435 122.71 203.78 128.831C209.556 135.398 214.604 145.538 218.146 153.644C223.243 165.306 223.21 168.315 227.596 175.036C224.512 185.09 221.926 195.301 219.85 205.628C219.188 208.825 218.195 213.699 217.252 218.128C215.878 224.968 215.051 229.294 215.134 228.388C214.985 229.311 215.134 229.277 215.134 229.499C209.738 227.013 204.532 224.109 199.56 220.812C197.822 219.615 188.951 213.75 190.706 212.433V212.468ZM165.5 187.741C165.5 186.852 165.599 186.031 165.633 185.176C168.628 183.928 171.293 184.116 172.104 187.348C173.759 193.213 171.144 201.028 164.474 201.028C164.474 200.207 164.755 197.864 164.788 197.608C172.401 198.668 172.352 184.27 165.5 187.741ZM164.855 196.872C165.086 194.171 165.285 191.315 165.45 188.63C166.243 188.377 167.091 188.377 167.883 188.63C169.853 189.365 169.538 196.428 164.772 196.872H164.855ZM218.99 234.817C212.621 232.665 206.46 229.906 200.586 226.575C198.931 225.669 190.358 220.847 189.779 218.983C189.278 217.319 189.227 215.545 189.63 213.853C191.848 218.316 205.915 225.823 210.433 228.029C212.502 229.037 214.637 229.894 216.822 230.594C224.468 233.415 257.27 228.884 265.33 227.858C265.429 228.217 266.124 230.97 266.389 231.962C259.372 232.799 225.577 236.613 218.907 234.817H218.99ZM292.935 277.824C290.519 279.944 276.021 281.723 269.186 279.534C266.703 278.73 266.207 277.909 265.611 275.31C265.068 272.49 264.725 269.632 264.585 266.76C267.978 268.915 274.2 269.462 278.189 269.582C284.197 269.718 290.105 269.582 294.938 266.76C294.838 268.573 294.276 276.644 292.935 277.824ZM294.987 266.093C291.723 267.536 288.211 268.287 284.66 268.299C279.927 268.538 268.838 268.504 264.552 266.144C264.37 262.93 264.254 259.493 264.204 256.295C265.859 258.347 274.68 259.27 278.206 259.39C284.495 259.527 290.337 259.39 295.368 256.312C295.368 256.141 295.318 260.194 295.004 266.093H294.987ZM295.368 255.713C287.093 260.023 266.554 258.073 264.188 255.713V245.197C269.451 247.129 290.254 246.992 295.467 245.197C295.434 247.163 295.451 251.165 295.384 255.713H295.368ZM292.058 244.205C292.117 244.222 292.181 244.216 292.236 244.188C292.291 244.159 292.333 244.111 292.356 244.051C292.356 244.051 292.356 243.743 292.455 243.196C293.522 243.348 294.574 243.594 295.6 243.932C291.975 245.642 270.162 245.795 264.717 244.137C264.68 244.125 264.648 244.101 264.625 244.069C264.602 244.036 264.59 243.997 264.59 243.957C264.59 243.917 264.602 243.878 264.625 243.846C264.648 243.813 264.68 243.79 264.717 243.778C266.234 243.352 267.785 243.066 269.351 242.923C269.461 243.398 269.628 243.858 269.848 244.291C269.98 244.427 270.195 244.445 270.179 244.103C270.162 243.761 264.734 221.616 263.906 216.743C264.753 217.034 265.655 217.107 266.535 216.955C267.415 216.803 268.246 216.431 268.954 215.87C270.775 221.137 276.584 244.838 276.931 244.838C276.994 244.834 277.053 244.805 277.096 244.757C277.139 244.709 277.163 244.647 277.163 244.581L276.683 242.273H278.967C278.967 242.598 279.149 244.256 279.165 244.376C279.182 244.496 279.662 244.787 279.629 244.154C279.629 242.615 278.239 217.119 278.206 216.657C278.444 216.538 278.693 216.447 278.95 216.383C279.132 217.307 284.958 241.691 285.405 243.59C285.405 243.761 285.405 244.051 285.719 243.983C286.034 243.914 285.901 243.607 285.719 242.495L288.251 242.683V242.974C288.251 243.248 288.665 243.179 288.715 242.974C288.715 243.162 291.793 210.347 292.025 207.731C292.461 208.072 292.962 208.315 293.496 208.441C294.029 208.568 294.583 208.577 295.12 208.466C295.087 208.723 291.694 244.085 292.041 244.205H292.058ZM277.163 210.21C276.967 208.566 276.271 207.027 275.177 205.816C277.444 206.517 277.924 207.03 278.487 208.637C278.935 209.918 279.054 211.296 278.834 212.639C278.611 213.484 278.611 214.376 278.834 215.221C278.564 215.285 278.298 215.371 278.04 215.477C277.014 212.45 274.73 212.485 274.73 209.441C274.727 208.341 274.571 207.246 274.267 206.192C275.068 207.693 275.947 209.148 276.898 210.552C277.064 210.775 277.378 210.45 277.179 210.21H277.163ZM277.99 231.791C278.073 232.628 278.719 239.896 278.884 241.743H276.517C276.021 239.434 275.276 236.014 274.432 232.355L277.99 231.791ZM277.891 230.474L274.118 230.987C273.787 229.568 273.439 228.131 273.092 226.712C274.614 226.49 276.104 226.25 277.544 226.011C277.61 226.746 277.841 229.721 277.908 230.474H277.891ZM283.038 229.687C282.773 228.388 282.128 225.446 282.078 225.275C283.518 225.019 288.417 224.147 289.426 223.942C289.426 224.677 289.145 227.789 289.079 228.576C287.474 228.935 285.421 229.311 283.005 229.687H283.038ZM289.013 229.687C288.715 234.116 288.251 241.52 288.235 241.931C287.374 241.931 286.464 241.897 285.504 241.828C285.107 239.759 283.402 231.466 283.286 230.901C285.521 230.44 287.44 230.029 289.029 229.636L289.013 229.687ZM292.174 206.312C292.376 204.145 292.702 201.992 293.15 199.865C293.592 199.728 294.058 199.695 294.513 199.769C294.968 199.843 295.402 200.022 295.782 200.292C295.682 202.441 295.461 204.583 295.12 206.705C294.971 207.303 294.938 207.457 294.557 207.509C293.812 207.56 292.306 206.91 292.19 206.26L292.174 206.312ZM294.342 226.695C294.491 225.429 294.64 224.147 294.772 222.864C295.753 222.652 296.715 222.36 297.652 221.992C297.13 223.901 295.961 225.552 294.358 226.643L294.342 226.695ZM297.106 220.573C296.407 220.86 295.688 221.089 294.954 221.257C295.252 218.384 297.006 201.66 297.006 200.48C297.006 198.77 294.06 198.138 292.538 198.77C292.025 199.01 291.876 200.019 291.727 200.908C290.899 205.679 289.923 217.58 289.542 222.42L281.78 223.89C279.844 215.169 280.01 215.648 279.794 215.426C279.646 215.28 279.452 215.195 279.248 215.186C279.095 214.425 279.135 213.636 279.364 212.895C279.706 211.416 279.661 209.87 279.232 208.415C279.011 207.357 278.422 206.42 277.577 205.781C276.23 205.044 274.777 204.536 273.274 204.277C273.195 204.255 273.112 204.253 273.032 204.27C272.952 204.288 272.878 204.325 272.815 204.379C272.752 204.432 272.702 204.501 272.669 204.578C272.637 204.655 272.623 204.74 272.628 204.824C272.664 204.969 272.708 205.112 272.761 205.251C274.052 208.432 273.158 209.885 274.052 211.784C274.945 213.682 276.451 213.972 276.997 216.161C276.997 216.332 277.461 224.232 277.477 224.711L272.794 225.481C272.463 224.181 270.195 214.93 269.302 214.024C267.647 212.314 262.913 214.229 262.682 215.734C262.533 216.589 264.8 225.754 265.015 226.626C256.492 227.909 247.456 229.072 239.462 229.841C235.97 230.166 214.637 232.184 215.829 228.576C217.484 220.676 220.794 206.175 221.456 203.131V202.892C221.456 202.635 221.571 202.379 221.456 203.131C221.456 202.874 221.555 202.721 221.588 202.635L225.726 186.099C226.272 184.064 230.029 170.231 231.932 169.256C236.152 167.101 305.513 157.833 311.372 161.886C312.365 166.28 300.167 218.487 297.122 220.59L297.106 220.573Z" fill="#0560FC"/>
<path d="M163.035 83.0364V81.7197C163.035 81.5065 162.953 81.3021 162.807 81.1514C162.661 81.0007 162.464 80.916 162.257 80.916C162.049 80.916 161.85 81.0001 161.701 81.1503C161.553 81.3006 161.467 81.505 161.463 81.7197V83.2587C161.5 83.4621 161.611 83.643 161.773 83.7639C161.936 83.8848 162.137 83.9362 162.335 83.9076C162.534 83.8789 162.714 83.7724 162.838 83.6101C162.962 83.4479 163.021 83.2424 163.002 83.0364H163.035ZM268.806 188.27C268.326 187.791 267.648 187.227 267.019 187.432C265.976 187.774 264.934 190.51 264.487 191.639C263.232 195.006 262.236 198.471 261.508 202.001C262.186 203.814 273.639 201.437 275.195 200.65C275.691 200.411 275.625 199.795 275.459 199.248C273.822 195.246 271.576 191.54 268.806 188.27ZM261.955 201.779C262.252 200.36 266.026 189.484 267.317 188.492C269.319 189.672 273.341 196.922 274.417 199.658C272.927 200.274 262.815 202.924 261.955 201.779ZM127.204 238.048C127.039 238.168 123.431 240.527 123.266 240.698C123.226 240.715 123.193 240.744 123.169 240.78C123.146 240.817 123.133 240.86 123.133 240.904C123.133 240.947 123.146 240.99 123.169 241.027C123.193 241.063 123.226 241.092 123.266 241.109C124.192 241.382 127.287 241.741 128.231 241.844C150.871 235.979 151.02 235.979 150.739 235.979C150.891 235.957 151.029 235.876 151.125 235.752C151.22 235.628 151.266 235.47 151.252 235.312C151.252 235.021 150.805 233.003 150.672 232.388L127.204 238.048ZM171.062 75.8886C171.525 75.8886 172.436 76.1109 172.618 76.128C173.622 76.2357 174.618 76.4186 175.597 76.6752L177.086 76.9488C177.143 76.9634 177.203 76.9569 177.255 76.9304C177.308 76.9039 177.349 76.8592 177.373 76.8041C177.397 76.749 177.401 76.687 177.385 76.629C177.369 76.571 177.333 76.5208 177.285 76.4871C176.421 75.7312 175.374 75.2344 174.256 75.0507C173.149 74.8055 171.997 74.9067 170.946 75.3414C170.911 75.3493 170.878 75.3641 170.849 75.3851C170.82 75.4061 170.795 75.4329 170.776 75.4639C170.757 75.4948 170.743 75.5294 170.737 75.5656C170.731 75.6018 170.732 75.6389 170.739 75.6749C170.747 75.7108 170.761 75.7448 170.782 75.775C170.802 75.8052 170.828 75.8309 170.858 75.8508C170.888 75.8706 170.921 75.8842 170.956 75.8907C170.991 75.8972 171.027 75.8965 171.062 75.8886ZM157.954 77.3934C158.401 77.2908 159.361 77.1369 159.609 77.1027C160.612 76.8764 161.63 76.7278 162.655 76.6581L164.31 76.47C164.375 76.47 164.439 76.443 164.485 76.3949C164.532 76.3468 164.558 76.2815 164.558 76.2135C164.558 76.1455 164.532 76.0802 164.485 76.0321C164.439 75.984 164.375 75.957 164.31 75.957C163.243 75.4897 162.072 75.3335 160.926 75.5053C159.779 75.6772 158.7 76.1705 157.805 76.9317C157.766 76.9317 157.727 76.9414 157.692 76.9599C157.657 76.9784 157.627 77.0052 157.604 77.0382C157.581 77.0712 157.566 77.1093 157.56 77.1495C157.554 77.1897 157.557 77.2308 157.57 77.2693C157.582 77.3079 157.603 77.3428 157.632 77.3713C157.66 77.3997 157.694 77.4209 157.731 77.433C157.769 77.4451 157.809 77.4479 157.847 77.441C157.886 77.4341 157.923 77.4178 157.954 77.3934ZM174.504 80.3688C174.298 80.3688 174.1 80.4535 173.954 80.6042C173.808 80.7549 173.726 80.9593 173.726 81.1725V82.7115C173.755 82.9247 173.864 83.1174 174.03 83.2472C174.196 83.3771 174.406 83.4335 174.612 83.4041C174.818 83.3746 175.005 83.2616 175.13 83.0901C175.256 82.9185 175.311 82.7024 175.282 82.4892V81.1725C175.284 81.0663 175.266 80.9608 175.228 80.8622C175.189 80.7636 175.132 80.6741 175.059 80.599C174.987 80.5239 174.9 80.4648 174.805 80.4252C174.709 80.3857 174.607 80.3665 174.504 80.3688ZM46.0598 228.831C48.3602 229.601 53.7224 231.67 56.1884 231.362C56.4863 231.362 56.8173 231.054 57.0324 230.507C58.6874 226.659 57.4958 207.097 56.9 203.318C56.4863 200.599 46.97 197.23 44.6696 199.163C43.1801 200.411 43.9248 214.895 44.0903 216.912C44.5206 221.786 44.0738 228.164 46.0598 228.831ZM45.4143 200.069C47.2017 198.735 55.4933 201.898 55.7581 203.489C56.1718 206.174 57.711 228.746 56.056 230.507C53.921 230.832 48.2609 229.036 46.126 228.352C44.6199 227.839 45.133 221.033 44.8847 216.827C44.7689 213.988 44.5868 202.719 45.4143 200.069ZM163.019 93.2793C162.977 93.2582 162.932 93.2472 162.886 93.2472C162.84 93.2472 162.795 93.2582 162.754 93.2793C162.34 93.4332 162.092 93.912 162.026 94.6131C161.972 96.4247 162.561 98.1942 163.681 99.5892C163.943 99.9595 164.275 100.271 164.657 100.506C165.038 100.741 165.462 100.894 165.902 100.957C166.342 101.019 166.79 100.989 167.219 100.869C167.647 100.748 168.048 100.54 168.397 100.256C169.395 99.4078 170.179 98.3223 170.681 97.0926C170.727 96.9967 170.75 96.8915 170.75 96.7848C170.75 96.6781 170.727 96.5728 170.681 96.477C170.168 95.6562 168.944 96.819 163.019 93.2793ZM162.87 93.8607C164.668 95.4427 166.773 96.6088 169.043 97.2807C165.501 103.505 161.943 95.109 162.87 93.8607ZM166.924 89.8422C167.984 90.0474 170.913 89.6712 171.542 88.5597C171.856 88.0296 171.542 87.8586 170.847 85.6698C170.22 83.7682 169.485 81.9068 168.646 80.0952C168.348 79.6164 167.967 80.0952 168.182 80.3859C168.642 83.0076 169.375 85.5703 170.367 88.0296C169.169 88.6087 167.943 89.1224 166.693 89.5686C166.69 89.6023 166.695 89.6361 166.705 89.6681C166.716 89.7001 166.732 89.7297 166.754 89.7551C166.775 89.7806 166.801 89.8013 166.831 89.8163C166.86 89.8312 166.892 89.84 166.924 89.8422ZM227.961 267.665C234.167 263.595 229.334 259.85 225.23 261.629C224.221 259.731 223.989 259.577 221.92 259.679C211.179 260.244 162.671 271.838 162.208 272.026C159.758 273.069 165.981 288.168 168.447 290.152C169.01 290.596 168.828 290.682 174.902 289.451C175.299 293.178 176.871 299.711 180.545 299.916C182.257 299.592 183.925 299.052 185.51 298.308C188.579 301.463 191.847 304.405 195.291 307.115C199.098 309.748 223.426 280.388 227.067 276.967C228.11 276.608 229.037 276.369 228.921 273.701C232.065 273.103 234.498 271.102 232.827 268.229C231.701 266.485 229.748 266.759 227.961 267.665ZM228.54 263.014C229.219 263.27 229.566 263.544 229.351 264.245C228.905 265.317 228.252 266.283 227.431 267.084C226.992 265.693 226.478 264.328 225.892 262.997C226.749 262.678 227.687 262.684 228.54 263.014ZM210.931 262.45C211.543 265.442 211.957 267.067 212.735 269.82L201.266 272.06C200.606 269.586 199.838 267.144 198.965 264.741C201.133 264.314 209.16 262.757 210.931 262.45ZM193.967 285.278C194.574 287.427 195.471 289.476 196.632 291.366C193.454 292.956 190.459 294.41 187.91 295.606C186.995 292.739 185.709 290.012 184.087 287.501L193.967 285.278ZM189.283 285.278C188.724 282.307 188.017 279.368 187.165 276.472L200.405 273.513C201.127 276.41 202 279.264 203.02 282.063C198.469 283.055 193.719 284.167 189.283 285.21V285.278ZM194.795 285.364C194.613 285.09 193.487 285.5 205.668 282.611C205.883 283.881 206.339 285.096 207.009 286.184L197.31 291.092C196.734 289.049 195.888 287.098 194.795 285.295V285.364ZM206.38 282.422C212.669 280.918 218.445 279.481 222.433 278.387L207.819 285.757C207.549 284.543 207.067 283.39 206.396 282.354L206.38 282.422ZM203.583 281.892C203.052 278.975 202.378 276.087 201.564 273.24L212.867 270.367C212.867 270.452 213.629 273.086 213.976 274.214C214.142 274.727 215.548 278.866 215.631 278.934C212.205 279.721 203.847 281.755 203.566 281.824L203.583 281.892ZM198.469 264.912C199.015 268.024 199.528 270.042 200.124 272.368L186.884 275.377C186.106 272.658 185.576 270.88 184.434 267.802C187.016 267.186 196.483 265.237 198.485 264.844L198.469 264.912ZM183.888 267.904C184.534 271.324 185.014 273.12 185.709 275.651C184.6 275.907 175.547 278.25 175.547 278.25C175.216 278.25 175.348 278.78 175.679 278.712C175.679 278.712 185.494 276.831 185.99 276.711C185.99 276.711 186.702 279.652 188.737 285.415L178.063 287.877C176.536 281.912 174.617 276.062 172.32 270.367L183.888 267.904ZM168.91 289.57C166.395 287.621 160.635 273.257 162.373 272.47C162.373 272.47 166.163 271.615 171.856 270.384C173.275 276.377 175.168 282.239 177.516 287.911C168.811 289.929 169.192 289.724 168.927 289.502L168.91 289.57ZM180.495 298.667C177.698 298.667 176.027 292.426 175.53 289.587C175.53 289.262 174.653 289.587 183.309 287.723C183.739 287.638 183.061 287.518 185.129 291.964C185.723 293.361 186.455 294.691 187.314 295.931C185.137 297.009 182.879 297.901 180.562 298.599L180.495 298.667ZM195.92 305.986C192.555 303.55 189.323 300.924 186.238 298.12C189.085 296.906 192.312 295.35 195.093 293.982C197.269 296.597 199.736 298.938 202.441 300.959C201.315 301.951 197.492 305.61 195.986 305.918L195.92 305.986ZM202.921 300.446C200.735 297.925 198.287 295.66 195.622 293.691L206.016 288.407C207.464 289.943 209.14 291.23 210.981 292.221C208.378 295.003 205.712 297.723 202.987 300.377L202.921 300.446ZM211.543 291.674C210.163 290.217 208.592 288.968 206.876 287.963C213.993 284.252 218.08 281.995 224.717 278.199C221.771 280.883 214.291 288.784 211.609 291.605L211.543 291.674ZM227.332 275.6C226.62 276.13 216.872 278.592 216.028 278.797C214.974 273.203 213.429 267.72 211.411 262.415C214.622 261.851 220.977 260.705 223.343 260.979C223.663 261.368 223.941 261.792 224.171 262.244C223.042 263.037 222.107 264.091 221.44 265.322C221.275 265.75 221.705 265.972 221.92 265.767C222.748 264.862 223.716 264.105 224.783 263.527C225.534 265.13 226.186 266.781 226.736 268.469C225.266 269.508 223.94 270.751 222.797 272.162C222.582 272.436 222.648 272.641 222.797 272.727C223.194 272.966 223.228 272.35 227.133 269.956C227.528 271.341 227.751 272.772 227.795 274.214C227.713 274.522 227.663 275.309 227.398 275.531L227.332 275.6ZM231.453 271.017C230.714 271.892 229.783 272.572 228.739 273C228.586 271.781 228.348 270.576 228.027 269.392C229.103 268.828 230.774 268.11 231.337 269.153C231.549 269.393 231.681 269.697 231.714 270.02C231.746 270.343 231.678 270.668 231.519 270.948L231.453 271.017Z" fill="#0560FC"/>
</svg>
