<svg width="173" height="30" viewBox="0 0 173 30" fill="none" xmlns="http://www.w3.org/2000/svg">
<path d="M7.32 23.72H16.28V29H0.48V0.919999H7.32V23.72ZM40.5825 17.48C40.5825 18.12 40.5425 18.7867 40.4625 19.48H24.9825C25.0892 20.8667 25.5292 21.9333 26.3025 22.68C27.1025 23.4 28.0758 23.76 29.2225 23.76C30.9292 23.76 32.1158 23.04 32.7825 21.6H40.0625C39.6892 23.0667 39.0092 24.3867 38.0225 25.56C37.0625 26.7333 35.8492 27.6533 34.3825 28.32C32.9158 28.9867 31.2758 29.32 29.4625 29.32C27.2758 29.32 25.3292 28.8533 23.6225 27.92C21.9158 26.9867 20.5825 25.6533 19.6225 23.92C18.6625 22.1867 18.1825 20.16 18.1825 17.84C18.1825 15.52 18.6492 13.4933 19.5825 11.76C20.5425 10.0267 21.8758 8.69333 23.5825 7.76C25.2892 6.82667 27.2492 6.36 29.4625 6.36C31.6225 6.36 33.5425 6.81333 35.2225 7.72C36.9025 8.62667 38.2092 9.92 39.1425 11.6C40.1025 13.28 40.5825 15.24 40.5825 17.48ZM33.5825 15.68C33.5825 14.5067 33.1825 13.5733 32.3825 12.88C31.5825 12.1867 30.5825 11.84 29.3825 11.84C28.2358 11.84 27.2625 12.1733 26.4625 12.84C25.6892 13.5067 25.2092 14.4533 25.0225 15.68H33.5825ZM42.8309 17.8C42.8309 15.5067 43.2576 13.4933 44.1109 11.76C44.9909 10.0267 46.1776 8.69333 47.6709 7.76C49.1643 6.82667 50.8309 6.36 52.6709 6.36C54.2443 6.36 55.6176 6.68 56.7909 7.32C57.9909 7.96 58.9109 8.8 59.5509 9.84V6.68H66.3909V29H59.5509V25.84C58.8843 26.88 57.9509 27.72 56.7509 28.36C55.5776 29 54.2043 29.32 52.6309 29.32C50.8176 29.32 49.1643 28.8533 47.6709 27.92C46.1776 26.96 44.9909 25.6133 44.1109 23.88C43.2576 22.12 42.8309 20.0933 42.8309 17.8ZM59.5509 17.84C59.5509 16.1333 59.0709 14.7867 58.1109 13.8C57.1776 12.8133 56.0309 12.32 54.6709 12.32C53.3109 12.32 52.1509 12.8133 51.1909 13.8C50.2576 14.76 49.7909 16.0933 49.7909 17.8C49.7909 19.5067 50.2576 20.8667 51.1909 21.88C52.1509 22.8667 53.3109 23.36 54.6709 23.36C56.0309 23.36 57.1776 22.8667 58.1109 21.88C59.0709 20.8933 59.5509 19.5467 59.5509 17.84ZM81.3794 22.6L86.2194 6.68H93.4994L85.5794 29H77.1394L69.2194 6.68H76.5394L81.3794 22.6ZM117.418 17.48C117.418 18.12 117.378 18.7867 117.298 19.48H101.818C101.925 20.8667 102.365 21.9333 103.138 22.68C103.938 23.4 104.912 23.76 106.058 23.76C107.765 23.76 108.952 23.04 109.618 21.6H116.898C116.525 23.0667 115.845 24.3867 114.858 25.56C113.898 26.7333 112.685 27.6533 111.218 28.32C109.752 28.9867 108.112 29.32 106.298 29.32C104.112 29.32 102.165 28.8533 100.458 27.92C98.7518 26.9867 97.4184 25.6533 96.4584 23.92C95.4984 22.1867 95.0184 20.16 95.0184 17.84C95.0184 15.52 95.4851 13.4933 96.4184 11.76C97.3784 10.0267 98.7118 8.69333 100.418 7.76C102.125 6.82667 104.085 6.36 106.298 6.36C108.458 6.36 110.378 6.81333 112.058 7.72C113.738 8.62667 115.045 9.92 115.978 11.6C116.938 13.28 117.418 15.24 117.418 17.48ZM110.418 15.68C110.418 14.5067 110.018 13.5733 109.218 12.88C108.418 12.1867 107.418 11.84 106.218 11.84C105.072 11.84 104.098 12.1733 103.298 12.84C102.525 13.5067 102.045 14.4533 101.858 15.68H110.418ZM145.347 0.919999V29H138.507V17.44H127.867V29H121.027V0.919999H127.867V11.92H138.507V0.919999H145.347ZM164.605 29L158.765 18.4H157.125V29H150.285V0.919999H161.765C163.978 0.919999 165.858 1.30667 167.405 2.08C168.978 2.85333 170.151 3.92 170.925 5.28C171.698 6.61333 172.085 8.10667 172.085 9.76C172.085 11.6267 171.551 13.2933 170.485 14.76C169.445 16.2267 167.898 17.2667 165.845 17.88L172.325 29H164.605ZM157.125 13.56H161.365C162.618 13.56 163.551 13.2533 164.165 12.64C164.805 12.0267 165.125 11.16 165.125 10.04C165.125 8.97333 164.805 8.13333 164.165 7.52C163.551 6.90667 162.618 6.6 161.365 6.6H157.125V13.56Z" fill="url(#paint0_linear_3943_819)"/>
<defs>
<linearGradient id="paint0_linear_3943_819" x1="86" y1="-15" x2="86" y2="45" gradientUnits="userSpaceOnUse">
<stop stop-color="#0047FE"/>
<stop offset="1" stop-color="#5576CB" stop-opacity="0.78"/>
</linearGradient>
</defs>
</svg>
