<svg width="293" height="293" viewBox="0 0 293 293" fill="none" xmlns="http://www.w3.org/2000/svg">
<g clip-path="url(#clip0_3943_799)">
<path d="M97.7927 138.784C102.416 141.536 107.394 143.641 112.589 145.04C112.955 145.216 113.307 145.362 113.673 145.509C113.817 145.887 113.94 146.274 114.04 146.666C112.17 147.138 110.278 147.514 108.37 147.794C110.258 148.879 112.422 149.389 114.596 149.259V150.138C112.711 150.132 110.842 149.795 109.073 149.142C107.417 148.48 105.848 147.619 104.4 146.578C104.131 146.451 103.845 146.367 103.55 146.329C102.221 146.828 101.039 147.653 100.113 148.728C99.1859 149.803 98.5443 151.094 98.2469 152.482C97.9685 154.592 100.063 154.138 102.071 154.035C105.396 153.903 108.751 153.757 112.076 153.742C117.238 153.679 122.352 154.739 127.063 156.848C130.754 158.626 133.707 161.636 135.414 165.36C136.175 167.119 136.702 168.971 136.981 170.868C137.493 172.904 137.583 175.023 137.245 177.094C138.361 173.488 139.03 169.759 139.238 165.989V164.876C139.443 161.536 139.501 157.551 136.981 155.061C135.642 153.731 133.997 152.75 132.191 152.204C130.366 151.601 128.487 151.179 126.58 150.944C124.661 150.636 122.742 150.46 120.72 150.285C118.698 150.109 117.248 150.182 115.475 150.153C115.465 148.631 115.12 147.131 114.464 145.758C117.276 146.646 120.288 146.687 123.123 145.875C125.32 145.318 128.338 144.41 128.983 142.007C129.451 142.388 131.913 143.765 130.565 142.857C130.418 142.74 130.565 142.74 130.711 142.857C132.66 143.619 134.799 143.707 136.762 144.41C140.248 145.67 144.306 147.75 144.717 151.867C144.515 149.818 143.847 147.842 142.766 146.091C141.684 144.339 140.217 142.857 138.476 141.758C135.495 139.992 132.063 139.137 128.602 139.297C129.707 138.573 130.638 137.612 131.327 136.484C132.308 134.848 132.848 132.986 132.894 131.079C132.904 127.66 132.122 124.285 130.609 121.219C131.33 120.515 131.838 119.621 132.074 118.641C132.211 118.114 132.226 117.563 132.116 117.029C132.007 116.496 131.777 115.995 131.444 115.564C131.048 115.142 130.573 114.802 130.046 114.563C129.518 114.325 128.949 114.193 128.37 114.175C127.792 114.158 127.215 114.254 126.674 114.46C126.133 114.666 125.638 114.976 125.218 115.374C124.248 116.098 123.555 117.132 123.254 118.304C123.052 119.061 123.104 119.864 123.401 120.589C123.206 120.621 123.021 120.696 122.859 120.809C122.405 120.399 121.936 120.018 121.496 119.578C121.819 120.094 122.182 120.584 122.581 121.043C122.323 121.316 122.111 121.627 121.951 121.966C120.948 121.584 119.858 121.49 118.804 121.695C117.751 121.899 116.775 122.394 115.988 123.124C115.079 123.726 114.355 124.571 113.9 125.562C113.444 126.553 113.275 127.652 113.41 128.735C112.678 129.23 111.987 129.784 111.344 130.39C110.836 130.786 110.374 131.238 109.967 131.738C109.46 129.083 109.595 126.345 110.362 123.754C112.15 118.557 114.518 113.578 117.424 108.913C118.654 108.913 124.104 112.707 124.646 113.206H124.734C125.268 113.563 125.76 113.981 126.199 114.451C126.934 114.033 127.764 113.814 128.609 113.814C129.454 113.814 130.284 114.033 131.019 114.451C131.11 113.404 131.001 112.35 130.697 111.345C131.368 112.11 131.81 113.05 131.971 114.055C131.978 114.094 131.997 114.13 132.026 114.156C132.056 114.183 132.093 114.199 132.132 114.202C132.173 114.202 132.212 114.187 132.241 114.16C132.271 114.133 132.29 114.095 132.293 114.055C132.484 111.772 131.939 109.488 130.741 107.536C128.535 104.166 125.233 101.661 121.394 100.445C117.093 98.9937 112.487 98.6951 108.035 99.5794C103.582 100.464 99.4397 102.5 96.0201 105.485C89.5741 110.788 86.4097 117.937 87.567 124.735C88.4607 130.082 92.2257 135.21 97.7927 138.784ZM130.023 115.872C130.044 115.855 130.069 115.846 130.096 115.846C130.123 115.846 130.148 115.855 130.169 115.872C129.992 116.949 129.687 118.002 129.261 119.007C129.261 119.153 128.939 119.095 129.012 119.007C129.407 117.981 129.656 116.941 129.979 115.872H130.023ZM127.825 116.765C127.825 116.663 128.016 116.765 127.986 116.765C127.453 118.128 127.022 119.529 126.697 120.955C126.697 121.073 126.477 120.955 126.507 120.955C126.775 119.516 127.203 118.111 127.781 116.765H127.825ZM120.779 124.193C120.8 124.179 120.826 124.171 120.852 124.171C120.878 124.171 120.903 124.179 120.925 124.193C120.632 125.409 120.193 126.61 119.782 127.826C119.782 127.958 119.563 127.826 119.592 127.826C119.973 126.61 120.295 125.38 120.735 124.193H120.779ZM118.42 123.636C118.42 123.534 118.669 123.636 118.64 123.739C118.127 125.204 117.468 126.669 117.057 128.324C116.647 129.98 117.057 128.412 116.955 128.412C116.943 128.412 116.932 128.41 116.921 128.406C116.911 128.401 116.901 128.395 116.893 128.386C116.885 128.378 116.878 128.369 116.874 128.358C116.869 128.347 116.867 128.336 116.867 128.324C117.133 126.695 117.642 125.115 118.376 123.636H118.42ZM101.221 133.32C101.31 132.958 101.492 132.625 101.748 132.353C102.055 132.085 102.43 131.907 102.832 131.84C106.129 131.254 108.399 134.023 110.406 136.514C110.861 137.07 111.285 137.612 111.696 138.067C111.725 138.094 111.765 138.11 111.805 138.11C111.846 138.11 111.886 138.094 111.915 138.067C111.928 138.054 111.938 138.039 111.945 138.023C111.952 138.007 111.956 137.989 111.956 137.971C111.956 137.954 111.952 137.936 111.945 137.92C111.938 137.903 111.928 137.888 111.915 137.876C111.124 136.197 110.529 134.432 110.143 132.617C110.772 132.102 111.351 131.528 111.871 130.903L113.747 129.189C113.83 129.38 113.933 129.562 114.054 129.731C115.358 131.43 118.449 131.284 120.94 129.306C123.43 127.328 124.397 124.457 123.079 122.743C122.904 122.527 122.702 122.335 122.478 122.171C122.679 121.923 122.916 121.706 123.181 121.527L123.474 121.849C124.171 122.506 124.98 123.032 125.862 123.402C126.785 123.783 127.986 123.402 127.957 124.354C127.943 124.8 127.811 125.235 127.574 125.613C127.338 125.992 127.005 126.3 126.609 126.508C127.087 126.366 127.511 126.085 127.829 125.702C128.148 125.319 128.345 124.85 128.397 124.354C128.413 124.209 128.397 124.062 128.352 123.923C128.306 123.784 128.232 123.656 128.133 123.548C127.928 123.354 127.666 123.231 127.386 123.197C126.941 123.136 126.504 123.028 126.082 122.875C125.231 122.524 124.448 122.029 123.767 121.41C123.711 121.344 123.647 121.285 123.577 121.234L123.87 121.073C123.922 121.186 123.986 121.294 124.06 121.395C124.408 121.833 124.855 122.183 125.364 122.415C125.874 122.647 126.431 122.754 126.99 122.728C128.129 122.717 129.236 122.348 130.155 121.673C131.497 124.597 132.196 127.774 132.206 130.991C132.209 132.758 131.749 134.496 130.872 136.03C129.949 137.592 128.576 138.838 126.932 139.605C126.881 139.661 126.853 139.734 126.853 139.81C126.853 139.886 126.881 139.959 126.932 140.015L127.283 140.352L127.459 140.484C127.928 140.953 128.411 141.392 128.924 141.817C127.913 144.747 122.566 145.567 120.031 145.699C118.058 145.669 116.094 145.429 114.171 144.981C113.734 144.228 113.202 143.534 112.589 142.916C111.729 141.599 111.012 140.194 110.45 138.726V138.462C110.478 138.429 110.491 138.387 110.486 138.344C110.482 138.301 110.461 138.262 110.428 138.235C110.395 138.208 110.353 138.195 110.31 138.199C110.268 138.203 110.228 138.224 110.201 138.257C109.82 138.711 109.345 139.077 108.809 139.33C108.273 139.583 107.688 139.717 107.095 139.722C105.89 139.685 104.721 139.304 103.726 138.623C102.819 138.098 102.094 137.31 101.646 136.362C101.198 135.415 101.05 134.354 101.221 133.32Z" fill="#0560FC"/>
<path d="M115.872 120.384C115.149 120.706 114.551 121.257 114.172 121.952C114.876 121.571 115.476 121.19 116.15 120.897C116.805 120.57 117.507 120.348 118.23 120.238C117.852 120.08 117.443 120.012 117.034 120.037C116.625 120.063 116.228 120.181 115.872 120.384ZM122.669 117.352C122.787 117.1 122.919 116.856 123.065 116.619C123.21 116.402 123.371 116.196 123.548 116.004C123.874 115.564 124.237 115.152 124.632 114.773C124.328 114.782 124.03 114.861 123.761 115.003C123.492 115.146 123.259 115.348 123.08 115.594C122.872 115.831 122.726 116.115 122.655 116.422C122.583 116.728 122.588 117.048 122.669 117.352ZM121.761 130.464C121.856 130.562 121.939 130.67 122.01 130.786C122.186 131.079 122.42 131.518 122.625 131.914C122.799 132.293 123.004 132.655 123.241 132.998L123.417 133.159C123.417 133.191 123.427 133.222 123.446 133.248C123.464 133.274 123.489 133.294 123.519 133.306C123.868 133.726 124.326 134.041 124.844 134.214C125.362 134.388 125.918 134.413 126.449 134.287C126.958 134.134 127.423 133.861 127.805 133.491C128.187 133.122 128.476 132.666 128.647 132.163V131.987C128.957 131.104 129.067 130.164 128.969 129.233C128.97 129.202 128.963 129.171 128.95 129.143C128.937 129.115 128.918 129.09 128.894 129.07C128.87 129.05 128.842 129.036 128.812 129.029C128.782 129.022 128.75 129.021 128.72 129.028C128.69 129.03 128.662 129.039 128.636 129.054C128.611 129.07 128.589 129.091 128.573 129.116C128.097 129.315 127.607 129.481 127.108 129.614H126.933L125.248 130.068C124.839 130.172 124.423 130.241 124.003 130.273C123.278 130.272 122.555 130.188 121.849 130.024C121.791 130.01 121.73 130.019 121.678 130.049C121.626 130.079 121.588 130.128 121.571 130.185C121.564 130.216 121.564 130.248 121.57 130.279C121.577 130.31 121.589 130.339 121.607 130.365C121.625 130.391 121.647 130.413 121.674 130.43C121.7 130.447 121.73 130.458 121.761 130.464ZM124.178 130.771C124.588 130.774 124.997 130.725 125.394 130.625L126.464 130.302C127.166 130.125 127.852 129.89 128.515 129.599C128.595 130.425 128.479 131.258 128.178 132.031C128.006 132.434 127.745 132.794 127.415 133.083C127.086 133.372 126.695 133.583 126.273 133.701C125.846 133.781 125.405 133.759 124.988 133.637C124.571 133.515 124.188 133.296 123.871 132.998C123.757 132.907 123.654 132.804 123.563 132.69C123.362 132.388 123.186 132.069 123.036 131.738C122.831 131.328 122.611 130.932 122.42 130.61C122.999 130.729 123.588 130.783 124.178 130.771ZM178.925 235.402C176.625 226.538 174.267 217.558 174.018 208.387C174.018 206.102 174.018 203.816 174.12 201.531C175.483 197.619 176.83 193.708 177.856 189.694C177.955 189.322 177.962 188.931 177.874 188.557C177.787 188.182 177.609 187.834 177.355 187.545C177.102 187.255 176.781 187.033 176.421 186.896C176.062 186.76 175.674 186.714 175.292 186.764H167.835C167.42 186.72 167.002 186.819 166.649 187.042C166.429 187.274 166.269 187.555 166.18 187.862L161.257 201.663C161.171 201.461 161.041 201.281 160.876 201.137C160.711 200.992 160.516 200.887 160.305 200.828C159.836 200.828 159.25 200.652 158.664 201.78C157.75 203.284 157.032 204.899 156.526 206.585C156.438 206.351 156.35 206.116 156.247 205.896C156.032 205.21 155.632 204.597 155.09 204.124C154.646 203.832 154.148 203.633 153.625 203.538C147.149 201.939 140.546 200.909 133.891 200.461C134.433 194.352 135.356 188.229 136.426 182.266C137.393 172.714 136.968 162.738 127.357 157.669C121.131 154.372 114.172 154.153 107.214 154.372C106.393 156.028 105.573 157.698 104.796 159.383C98.2918 167.894 92.7687 175.791 89.9999 186.837C87.1139 198.904 87.1139 211.482 89.9999 223.55C90.7034 227.064 92.3666 230.314 94.8051 232.94C93.3756 241.737 90.6504 250.273 86.7183 258.27C86.2364 259.081 85.988 260.008 86.0004 260.951C86.2358 262.058 86.8725 263.039 87.7877 263.705C94.3363 269.653 103.903 273.125 112.341 275.176C119.944 277.037 127.753 277.125 135.43 278.414C137.715 263.324 135.869 248.088 134.507 232.838C138.583 230.761 142.5 228.386 146.227 225.733C151.662 224.355 156.877 222.934 161.712 219.873C162.429 219.389 163.265 218.935 163.938 218.408C163.938 218.408 166.693 216.181 167.03 215.888C166.488 233.658 165.872 251.355 174.897 267.353C174.952 267.507 175.038 267.649 175.148 267.77C175.259 267.891 175.392 267.989 175.54 268.058C175.688 268.127 175.849 268.167 176.013 268.174C176.176 268.181 176.34 268.156 176.493 268.1C176.715 268.027 176.909 267.89 177.05 267.705C182.452 264.342 186.64 259.343 189.005 253.436C186.738 251.287 184.61 248.997 182.632 246.579C180.912 243.032 179.666 239.274 178.925 235.402ZM156.745 206.981C157.252 205.262 157.981 203.617 158.913 202.087C159.763 200.256 162.063 201.472 160.379 204.256C160.351 204.309 160.345 204.37 160.362 204.427C160.378 204.484 160.415 204.533 160.466 204.563C160.498 204.581 160.533 204.591 160.569 204.591C160.605 204.591 160.64 204.581 160.671 204.563L164.979 202.805C165.403 202.582 165.876 202.466 166.356 202.468C167.381 202.38 166.693 203.611 166.121 204.314C165.445 205.059 164.671 205.71 163.821 206.248C163.744 206.291 163.687 206.363 163.662 206.448C163.638 206.533 163.647 206.624 163.689 206.702C163.737 206.774 163.81 206.826 163.894 206.848C163.978 206.869 164.067 206.859 164.144 206.819L168.128 205.105C168.304 205.018 168.491 204.959 168.685 204.93C168.846 204.93 168.876 204.93 168.919 205.105C169.051 205.838 168.377 206.658 167.63 207.127C166.883 207.596 165.975 208.123 165.154 208.68C165.108 208.71 165.071 208.751 165.045 208.8C165.019 208.849 165.007 208.903 165.008 208.958C165.019 209.034 165.059 209.102 165.119 209.148C165.179 209.194 165.255 209.216 165.33 209.207C165.945 209.135 166.552 209.012 167.147 208.841C167.718 208.739 168.451 208.753 168.407 209.134C168.216 210.599 162.84 212.24 163.543 212.064L162.591 212.372C161.386 212.769 160.144 213.044 158.884 213.192C158.181 211.2 157.419 209.207 156.613 207.23C156.64 207.225 156.666 207.215 156.688 207.199C156.711 207.183 156.729 207.162 156.742 207.138C156.755 207.114 156.762 207.087 156.762 207.06C156.763 207.032 156.757 207.005 156.745 206.981ZM144.659 226.026L144.307 226.113H144.644C137.983 230.889 130.55 234.482 122.669 236.735C115.491 238.668 109.484 238.991 104.313 237.687C100.914 236.916 97.808 235.187 95.362 232.705C92.9161 230.223 91.2331 227.091 90.5126 223.682C87.6706 211.713 87.6706 199.245 90.5126 187.276C93.6038 175.175 99.9472 166.766 107.404 157.156C107.93 156.836 108.49 156.575 109.074 156.379C119.593 153.611 126.581 169.022 128.837 176.611C130.639 182.662 130.566 189.591 127.152 194.924C127.035 195.129 125.936 197.326 125.072 199.055C126.748 193.993 127.541 188.681 127.416 183.35C127.416 183.268 127.384 183.19 127.326 183.133C127.268 183.075 127.19 183.042 127.108 183.042C127.067 183.04 127.025 183.047 126.986 183.062C126.947 183.076 126.911 183.098 126.881 183.127C126.851 183.156 126.827 183.191 126.811 183.229C126.794 183.267 126.786 183.308 126.786 183.35C126.933 189.416 125.877 195.45 123.68 201.106C123.651 201.184 123.653 201.27 123.686 201.346C123.718 201.423 123.779 201.484 123.856 201.516H124.003C134.258 200.388 144.234 202.219 153.449 204.344C153.886 204.418 154.304 204.577 154.68 204.812C155.129 205.237 155.457 205.773 155.632 206.365C156.613 208.768 157.536 211.214 158.401 213.617C158.525 213.898 158.585 214.203 158.577 214.511C158.475 214.821 158.293 215.099 158.049 215.316C156.467 217.079 154.726 218.693 152.848 220.136C149.977 222.319 147.296 224.282 144.659 226.084V226.026ZM168.275 212.841H162.005C162.004 212.89 162.022 212.938 162.054 212.976C162.086 213.014 162.131 213.039 162.18 213.046H167.147V214.642C166.642 215.171 166.098 215.66 165.521 216.107L163.558 217.631C162.869 218.129 162.093 218.569 161.389 219.096C158.997 220.609 156.441 221.847 153.771 222.788C152.306 223.301 150.343 223.579 148.629 224.121C150.094 222.993 151.735 221.836 153.346 220.605C155.254 219.137 157.024 217.5 158.635 215.712C158.967 215.451 159.195 215.081 159.278 214.668C159.361 214.254 159.294 213.824 159.089 213.456C160.329 213.299 161.55 213.025 162.737 212.635L163.675 212.342C166.4 211.478 167.205 211.288 168.348 210.204C168.498 210.091 168.623 209.948 168.713 209.784C168.804 209.62 168.86 209.438 168.875 209.251C168.88 209.138 168.859 209.025 168.813 208.92C168.767 208.816 168.699 208.724 168.612 208.651C168.47 208.52 168.299 208.424 168.114 208.372C167.783 208.328 167.448 208.328 167.117 208.372H166.912C167.279 208.153 167.645 207.947 168.011 207.698C168.504 207.449 168.913 207.061 169.189 206.582C169.465 206.103 169.595 205.554 169.564 205.003C169.418 204.461 168.802 204.138 167.909 204.593L166.136 205.369C166.313 205.219 166.479 205.058 166.634 204.886C166.991 204.451 167.264 203.955 167.44 203.421C167.499 203.254 167.517 203.075 167.495 202.899C167.472 202.724 167.408 202.556 167.308 202.41C167.19 202.286 167.046 202.189 166.887 202.125C166.727 202.062 166.556 202.034 166.385 202.044C165.839 202.056 165.304 202.192 164.817 202.439L161.887 203.684L166.282 191.29V191.378L167.044 189.137C167.069 188.97 167.127 188.811 167.215 188.667C167.302 188.523 167.418 188.399 167.554 188.3C167.691 188.202 167.846 188.132 168.01 188.095C168.174 188.057 168.344 188.053 168.509 188.082H176.083C176.64 188.082 176.962 188.082 177.27 188.683C177.395 189.078 177.395 189.503 177.27 189.899C176.215 193.62 171.41 208.211 169.945 211.874C169.681 212.591 168.934 212.826 168.275 212.841Z" fill="#0560FC"/>
<path d="M158.167 242.374C158.167 242.374 158.065 242.271 158.05 242.374C157.132 248.048 156.224 253.713 155.325 259.368C154.856 262.298 154.71 263.191 154.695 263.147C153.805 267.715 153.519 272.379 153.845 277.021C153.845 277.068 153.864 277.112 153.897 277.145C153.93 277.178 153.975 277.197 154.021 277.197C154.068 277.197 154.113 277.178 154.146 277.145C154.179 277.112 154.197 277.068 154.197 277.021C154.344 272.011 154.812 267.03 155.398 262.063C155.714 266.525 156.999 270.865 159.163 274.779C159.251 274.911 159.5 274.78 159.442 274.648C157.707 270.127 156.427 265.445 155.618 260.672C156.351 254.577 157.303 248.483 158.167 242.374Z" fill="#0560FC"/>
<path d="M155.22 259.837C155.228 259.705 155.228 259.573 155.22 259.441C155.22 259.441 154.678 263.045 154.693 263.148C154.766 262.239 155.22 259.837 155.22 259.837ZM293.077 10.9919C289.804 12.5912 286.306 13.683 282.705 14.2296C286.029 10.8623 288.829 7.01534 291.011 2.81721C291.043 2.76018 291.063 2.69705 291.069 2.63188C291.076 2.56672 291.068 2.50097 291.048 2.43886C291.027 2.37676 290.993 2.31968 290.949 2.2713C290.905 2.22292 290.851 2.18431 290.792 2.15796C290.724 2.12205 290.648 2.10327 290.572 2.10327C290.495 2.10327 290.42 2.12205 290.352 2.15796C287.541 4.03469 284.498 5.53678 281.298 6.62621C279.54 7.21221 276.64 8.35491 274.794 7.53451C272.948 6.71411 271.19 4.39941 269.461 3.35926C264.169 0.228557 257.88 -0.761914 251.881 0.590414C247.193 1.63056 233.1 6.99246 231.679 25.8617C231.562 27.3267 231.957 28.6745 230.624 29.4656C229.672 30.0223 225.804 29.07 224.647 28.9675C220.844 28.5893 217.073 27.9332 213.366 27.0044C200.533 23.7667 187.626 17.5551 182.601 4.50196C182.455 4.07711 181.737 3.82806 181.503 4.35546C179.19 9.76857 178.417 15.7154 179.27 21.5397C180.124 27.364 182.569 32.8395 186.337 37.3619C182.537 36.813 178.93 35.339 175.833 33.0695C175.764 33.0306 175.688 33.0059 175.609 32.9967C175.53 32.9874 175.45 32.9939 175.374 33.0157C175.298 33.0375 175.226 33.0742 175.164 33.1236C175.102 33.1731 175.051 33.2343 175.013 33.3039C174.993 33.3956 174.993 33.4905 175.013 33.5822C174.789 39.6414 176.67 45.5912 180.337 50.4199C184.004 55.2487 189.23 58.6584 195.127 60.0694C192.559 60.5084 189.947 60.6412 187.348 60.465C187.27 60.4649 187.192 60.4806 187.12 60.5109C187.048 60.5413 186.983 60.5858 186.928 60.6417C186.874 60.6977 186.831 60.7641 186.802 60.8369C186.774 60.9097 186.76 60.9874 186.762 61.0656C186.756 61.1143 186.756 61.1634 186.762 61.2121C188.404 65.2701 191.044 68.8479 194.437 71.6137C197.831 74.3795 201.867 76.244 206.173 77.0341C201.963 78.9982 197.603 80.6246 193.135 81.8979C188.461 83.2457 180.975 85.8827 176.36 83.3629C176.295 83.3236 176.223 83.2976 176.147 83.2866C176.072 83.2757 175.995 83.2798 175.922 83.2989C175.848 83.3181 175.779 83.3517 175.718 83.3979C175.658 83.4441 175.607 83.5019 175.569 83.568C175.507 83.6794 175.483 83.8075 175.498 83.934C175.514 84.0604 175.57 84.1785 175.657 84.2712C182.748 91.5962 193.105 94.7753 202.935 96.1524C202.464 97.3684 202.144 98.6379 201.983 99.9321L200.181 98.804L200.02 98.9359C192.148 104.653 184.665 110.889 177.62 117.6C174.147 121.092 170.985 124.882 168.171 128.924C167.453 129.906 166.838 131.019 166.12 131.854C165.333 132.67 164.307 133.214 163.19 133.407C160.866 134.081 158.541 134.809 156.217 135.59C151.59 137.116 147.051 138.896 142.621 140.923L140.849 141.772C140.613 141.712 140.373 141.673 140.131 141.655C139.921 141.666 139.714 141.705 139.516 141.772L139.867 141.948C142.929 144.011 145.104 147.148 145.962 150.738C146.518 151.932 147.155 153.087 147.866 154.196C150.195 157.697 153.594 160.422 156.656 163.337C158.706 165.86 160.525 168.562 162.091 171.409C162.497 172.179 162.859 172.972 163.175 173.783C164.083 176.079 164.742 178.466 165.138 180.903C165.505 182.924 165.724 184.975 165.9 187.012C165.982 186.853 166.091 186.709 166.223 186.587C166.577 186.366 166.994 186.268 167.409 186.308H174.734C174.854 180.932 173.857 175.589 171.804 170.618C173.504 169.49 175.188 168.304 176.8 167.029C181.108 163.558 185.113 159.725 188.769 155.573C196.19 147.345 201.853 137.689 205.411 127.196C207.173 121.979 208.295 116.568 208.752 111.081C209.162 105.719 209.22 104.796 208.356 103.873C209.994 103.553 211.565 102.954 213 102.1C213.46 101.772 213.883 101.394 214.26 100.972C214.472 100.754 214.645 100.501 214.773 100.225C214.85 100.046 214.868 99.8464 214.823 99.6564C214.778 99.4665 214.673 99.296 214.524 99.1703C214.309 99.0515 214.065 98.9956 213.82 99.0091C213.621 99.0255 213.425 99.0648 213.234 99.1263L214.055 98.4671C214.557 98.1041 214.932 97.5912 215.124 97.0021C222.186 96.887 229.187 95.6863 235.883 93.4421C237.861 92.7536 239.766 91.9771 241.655 91.0981C241.099 92.0943 240.557 93.0905 240.073 94.116C239.883 94.453 240.073 95.039 240.571 94.9804C241.749 94.748 242.965 94.8033 244.117 95.1415C244.081 95.5745 243.959 95.9959 243.757 96.3808C243.556 96.7658 243.28 97.1066 242.945 97.383C242.595 97.6818 242.185 97.9017 241.743 98.0276C241.325 98.0702 240.912 98.1587 240.513 98.2913C240.483 98.3199 240.46 98.3541 240.444 98.3918C240.429 98.4296 240.42 98.4701 240.42 98.511C240.42 98.5519 240.429 98.5925 240.444 98.6302C240.46 98.6679 240.483 98.7021 240.513 98.7308C240.733 98.9377 241.017 99.062 241.318 99.0824L229.818 104.942C229.093 105.321 228.545 105.968 228.29 106.745C228.036 107.523 228.095 108.369 228.456 109.103L237.495 126.917C237.862 127.649 238.506 128.206 239.283 128.464C240.06 128.722 240.908 128.661 241.641 128.294L269.769 114.04C270.498 113.661 271.048 113.011 271.3 112.229C271.553 111.448 271.487 110.598 271.117 109.865L262.151 92.0064C261.775 91.2787 261.128 90.728 260.35 90.4731C259.571 90.2182 258.724 90.2796 257.99 90.644L255.412 91.9625C254.43 89.9408 252.057 89.5452 249.962 89.6478C250.92 88.1214 251.772 86.5305 252.511 84.8865C266.644 75.0147 276.499 60.143 280.082 43.2805C280.739 40.1985 281.228 37.0833 281.547 33.9485C281.796 31.4433 281.005 25.9056 282.778 24.0744C283.452 23.3712 284.814 22.8584 285.591 22.1699C286.742 21.0925 287.828 19.9478 288.843 18.7418C290.645 16.7201 291.773 13.4971 293.765 11.783C294.146 11.3875 293.575 10.7575 293.077 10.9919ZM208.429 104.913C208.563 105.563 208.603 106.229 208.546 106.891C208.576 108.265 208.517 109.64 208.371 111.007C207.866 116.503 206.686 121.916 204.855 127.122C201.357 137.484 195.778 147.021 188.461 155.148C184.801 159.239 180.791 163.004 176.478 166.399C174.91 167.659 173.284 168.816 171.614 169.944C171.205 169.056 170.74 168.195 170.222 167.366C166.384 161.228 159.967 157.199 154.532 152.452C150.239 148.731 146.987 144.673 141.786 142.197L142.885 141.67C147.329 139.717 151.846 137.968 156.436 136.425C158.722 135.663 161.036 134.96 163.38 134.257C163.985 134.101 164.578 133.9 165.153 133.656C165.759 133.392 166.292 132.985 166.706 132.47C167.526 131.459 168.171 130.433 168.801 129.437C171.593 125.484 174.72 121.779 178.148 118.362C185.104 111.714 192.441 105.477 200.123 99.683L207.096 103.697C207.226 103.813 207.363 103.92 207.506 104.019C207.907 104.203 208.232 104.519 208.429 104.913ZM213.44 97.8518C212.78 98.3938 211.887 99.0531 211.198 99.683C211.166 99.7144 211.14 99.752 211.122 99.7935C211.105 99.835 211.096 99.8797 211.096 99.9247C211.096 99.9698 211.105 100.014 211.122 100.056C211.14 100.097 211.166 100.135 211.198 100.166C211.24 100.212 211.294 100.245 211.353 100.263C211.412 100.281 211.475 100.283 211.535 100.269C212.121 100.108 212.619 99.8588 213.103 99.6977C213.517 99.4981 213.986 99.4414 214.436 99.5365C214.524 99.5365 214.582 99.7563 214.436 99.976C213.872 100.953 213.023 101.735 212.004 102.217C210.739 102.796 209.404 103.21 208.034 103.448C207.853 103.308 207.656 103.19 207.448 103.096L202.423 100.166C202.583 98.8137 202.923 97.4883 203.434 96.2256C205.719 96.5772 208.019 96.7823 210.319 96.9142C210.07 97.1486 209.836 97.3976 209.587 97.6174C209.506 97.6995 209.461 97.81 209.461 97.925C209.461 98.04 209.506 98.1505 209.587 98.2327C209.654 98.2686 209.73 98.2874 209.806 98.2874C209.883 98.2874 209.958 98.2686 210.026 98.2327L212.077 96.9288H214.143C213.972 97.2803 213.733 97.5941 213.44 97.8518ZM244.629 95.3027C245.209 95.6529 245.676 96.1611 245.977 96.7677L243.824 97.8518C244.133 97.5098 244.366 97.105 244.505 96.6651C244.644 96.2252 244.686 95.7605 244.629 95.3027ZM238.052 126.536L229.262 108.956C229.043 108.528 228.966 108.04 229.042 107.565C233.876 108.458 246.446 111.198 246.417 111.242C243.649 116.42 241.293 121.809 239.37 127.357C238.853 127.235 238.39 126.947 238.052 126.536ZM269.197 113.571L241.582 127.533C241.107 127.69 240.593 127.69 240.117 127.533C242.079 121.984 244.469 116.596 247.266 111.418L251.28 112.179C251.317 112.183 251.353 112.175 251.385 112.156C251.416 112.138 251.441 112.11 251.456 112.077C252.101 110.758 252.731 109.455 253.375 108.165C253.712 108.165 262.444 110.011 262.59 110.055C265.344 110.627 267.981 111.198 270.413 111.652C270.397 112.051 270.276 112.438 270.063 112.775C269.849 113.112 269.551 113.386 269.197 113.571ZM261.418 92.6364L270.135 109.879C270.239 110.112 270.308 110.359 270.34 110.612C267.981 110.172 256.774 107.828 253.859 107.301C256.408 102.086 258.913 97.1046 261.418 92.6364ZM254.24 93.4714C254.297 93.8832 254.217 94.3023 254.013 94.6647C253.81 95.0271 253.493 95.3129 253.112 95.4785C252.996 95.5502 252.909 95.661 252.868 95.7909C252.826 95.9208 252.833 96.0612 252.886 96.1868C252.939 96.3124 253.035 96.4149 253.157 96.4757C253.279 96.5366 253.419 96.5518 253.551 96.5186C253.918 96.4113 254.258 96.2301 254.552 95.9863C254.845 95.7425 255.086 95.4411 255.259 95.1008C255.432 94.7605 255.533 94.3884 255.557 94.0074C255.581 93.6264 255.526 93.2446 255.397 92.8854C256.672 92.4606 259.045 90.1605 260.671 92.1969C257.448 97.925 254.21 104.503 250.914 111.242C242.417 109.279 235.209 107.755 229.481 106.686C229.579 106.395 229.734 106.127 229.938 105.898C230.142 105.669 230.39 105.483 230.668 105.353L246.138 97.5295C246.165 97.9218 246.071 98.3129 245.869 98.6505C245.668 98.9882 245.368 99.2564 245.01 99.4193C244.945 99.4581 244.888 99.5099 244.844 99.5714C244.799 99.6329 244.768 99.7028 244.752 99.7769C244.735 99.851 244.734 99.9277 244.748 100.002C244.762 100.077 244.792 100.148 244.834 100.21C244.896 100.31 244.987 100.387 245.095 100.432C245.202 100.476 245.322 100.486 245.435 100.459C245.8 100.367 246.142 100.199 246.439 99.9671C246.736 99.7349 246.981 99.4434 247.159 99.1112C247.337 98.7789 247.444 98.4132 247.472 98.0375C247.501 97.6617 247.451 97.2841 247.325 96.9288L254.24 93.4714ZM254.24 92.5485L252.291 93.53C252.8 92.8666 253.031 92.0313 252.936 91.2007C253.488 91.5244 253.943 91.9897 254.254 92.5485H254.24ZM248.38 89.9701C248.204 90.307 248.38 90.8784 248.878 90.8198C250.056 90.5868 251.274 90.6472 252.423 90.9956C252.388 91.4272 252.268 91.8477 252.07 92.2325C251.871 92.6173 251.598 92.9588 251.266 93.237C250.91 93.5317 250.496 93.7465 250.05 93.867C249.632 93.9166 249.22 94.0049 248.819 94.1307C248.79 94.1593 248.767 94.1935 248.751 94.2312C248.735 94.269 248.727 94.3095 248.727 94.3504C248.727 94.3913 248.735 94.4319 248.751 94.4696C248.767 94.5073 248.79 94.5415 248.819 94.5702C248.995 94.7426 249.22 94.8554 249.464 94.8925L247.076 96.1084C246.153 93.9695 243.692 93.5593 241.568 93.6765C242.285 92.5192 242.945 91.3325 243.545 90.1312C245.887 88.9756 248.158 87.6791 250.343 86.249C249.713 87.4942 249.083 88.7248 248.526 89.9701H248.38ZM262.795 14.3175C262.49 14.3558 262.181 14.3028 261.906 14.1651C261.631 14.0274 261.403 13.8112 261.252 13.544C261.1 13.2768 261.031 12.9705 261.053 12.6639C261.075 12.3573 261.188 12.0643 261.377 11.8219C261.566 11.5795 261.823 11.3986 262.115 11.3022C262.406 11.2057 262.72 11.1981 263.017 11.2802C263.313 11.3624 263.578 11.5305 263.779 11.7635C263.979 11.9964 264.106 12.2836 264.143 12.5888C264.15 12.6471 264.15 12.7062 264.143 12.7646C264.169 13.1371 264.051 13.5053 263.814 13.7939C263.577 14.0825 263.239 14.2698 262.869 14.3175H262.795Z" fill="#0560FC"/>
</g>
<defs>
<clipPath id="clip0_3943_799">
<rect width="293" height="293" fill="white"/>
</clipPath>
</defs>
</svg>
